<?xml version="1.0" encoding="UTF-8" standalone="no"?>
<!-- Created with Inkscape (http://www.inkscape.org/) -->

<svg
   width="18in"
   height="12in"
   viewBox="0 0 457.2 304.8"
   version="1.1"
   id="svg5"
   sodipodi:docname="perzeptron.svg"
   inkscape:version="1.1.2 (0a00cf5339, 2022-02-04)"
   inkscape:export-filename="/home/mp/Documents/Hiwi/Science-KI-Camp2023/SCKI/02 - Perzeptron/resources/img/perzeptron.png"
   inkscape:export-xdpi="155"
   inkscape:export-ydpi="155"
   xmlns:inkscape="http://www.inkscape.org/namespaces/inkscape"
   xmlns:sodipodi="http://sodipodi.sourceforge.net/DTD/sodipodi-0.dtd"
   xmlns:xlink="http://www.w3.org/1999/xlink"
   xmlns="http://www.w3.org/2000/svg"
   xmlns:svg="http://www.w3.org/2000/svg">
  <sodipodi:namedview
     id="namedview7"
     pagecolor="#ffffff"
     bordercolor="#666666"
     borderopacity="1.0"
     inkscape:pageshadow="2"
     inkscape:pageopacity="0.0"
     inkscape:pagecheckerboard="0"
     inkscape:document-units="mm"
     showgrid="false"
     inkscape:zoom="0.51316815"
     inkscape:cx="764.85652"
     inkscape:cy="451.11919"
     inkscape:window-width="1846"
     inkscape:window-height="1016"
     inkscape:window-x="74"
     inkscape:window-y="27"
     inkscape:window-maximized="1"
     inkscape:current-layer="layer1"
     units="in" />
  <defs
     id="defs2">
    <marker
       style="overflow:visible"
       id="Arrow1Lend"
       refX="0"
       refY="0"
       orient="auto"
       inkscape:stockid="Arrow1Lend"
       inkscape:isstock="true">
      <path
         transform="matrix(-0.8,0,0,-0.8,-10,0)"
         style="fill:context-stroke;fill-rule:evenodd;stroke:context-stroke;stroke-width:1pt"
         d="M 0,0 5,-5 -12.5,0 5,5 Z"
         id="path11195" />
    </marker>
    <g
       id="g1199">
      <symbol
         overflow="visible"
         id="symbol999">
        <path
           style="stroke:none"
           d=""
           id="path9868" />
      </symbol>
      <symbol
         overflow="visible"
         id="symbol4807">
        <path
           style="stroke:none"
           d="m 4.203125,5.328125 -3.546875,4.375 C 0.578125,9.796875 0.5625,9.8125 0.5625,9.859375 c 0,0.109375 0.09375,0.109375 0.28125,0.109375 h 8.25 L 9.953125,7.484375 h -0.25 C 9.453125,8.234375 8.796875,8.84375 7.9375,9.125 7.78125,9.1875 7.09375,9.421875 5.625,9.421875 H 1.390625 l 3.46875,-4.28125 C 4.921875,5.046875 4.9375,5.03125 4.9375,4.984375 4.9375,4.9375 4.9375,4.9375 4.875,4.84375 L 1.640625,0.40625 h 3.9375 c 1.140625,0 3.4375,0.0625 4.125,1.921875 h 0.25 L 9.09375,0 h -8.25 C 0.5625,0 0.5625,0.015625 0.5625,0.3125 Z m 0,0"
           id="path76" />
      </symbol>
    </g>
    <marker
       style="overflow:visible"
       id="Arrow1Lend-3"
       refX="0"
       refY="0"
       orient="auto"
       inkscape:stockid="Arrow1Lend"
       inkscape:isstock="true">
      <path
         transform="matrix(-0.8,0,0,-0.8,-10,0)"
         style="fill:context-stroke;fill-rule:evenodd;stroke:context-stroke;stroke-width:1pt"
         d="M 0,0 5,-5 -12.5,0 5,5 Z"
         id="path11195-6" />
    </marker>
    <g
       id="g9282">
      <symbol
         overflow="visible"
         id="symbol9566">
        <path
           style="stroke:none;"
           d=""
           id="path2353" />
      </symbol>
      <symbol
         overflow="visible"
         id="symbol2930">
        <path
           style="stroke:none;"
           d="M 3.328125 -3.015625 C 3.390625 -3.265625 3.625 -4.1875 4.3125 -4.1875 C 4.359375 -4.1875 4.609375 -4.1875 4.8125 -4.0625 C 4.53125 -4 4.34375 -3.765625 4.34375 -3.515625 C 4.34375 -3.359375 4.453125 -3.171875 4.71875 -3.171875 C 4.9375 -3.171875 5.25 -3.34375 5.25 -3.75 C 5.25 -4.265625 4.671875 -4.40625 4.328125 -4.40625 C 3.75 -4.40625 3.40625 -3.875 3.28125 -3.65625 C 3.03125 -4.3125 2.5 -4.40625 2.203125 -4.40625 C 1.171875 -4.40625 0.59375 -3.125 0.59375 -2.875 C 0.59375 -2.765625 0.703125 -2.765625 0.71875 -2.765625 C 0.796875 -2.765625 0.828125 -2.796875 0.84375 -2.875 C 1.1875 -3.9375 1.84375 -4.1875 2.1875 -4.1875 C 2.375 -4.1875 2.71875 -4.09375 2.71875 -3.515625 C 2.71875 -3.203125 2.546875 -2.546875 2.1875 -1.140625 C 2.03125 -0.53125 1.671875 -0.109375 1.234375 -0.109375 C 1.171875 -0.109375 0.953125 -0.109375 0.734375 -0.234375 C 0.984375 -0.296875 1.203125 -0.5 1.203125 -0.78125 C 1.203125 -1.046875 0.984375 -1.125 0.84375 -1.125 C 0.53125 -1.125 0.296875 -0.875 0.296875 -0.546875 C 0.296875 -0.09375 0.78125 0.109375 1.21875 0.109375 C 1.890625 0.109375 2.25 -0.59375 2.265625 -0.640625 C 2.390625 -0.28125 2.75 0.109375 3.34375 0.109375 C 4.375 0.109375 4.9375 -1.171875 4.9375 -1.421875 C 4.9375 -1.53125 4.859375 -1.53125 4.828125 -1.53125 C 4.734375 -1.53125 4.71875 -1.484375 4.6875 -1.421875 C 4.359375 -0.34375 3.6875 -0.109375 3.375 -0.109375 C 2.984375 -0.109375 2.828125 -0.421875 2.828125 -0.765625 C 2.828125 -0.984375 2.875 -1.203125 2.984375 -1.640625 Z M 3.328125 -3.015625 "
           id="path3460" />
      </symbol>
      <symbol
         overflow="visible"
         id="symbol2891">
        <path
           style="stroke:none;"
           d=""
           id="path6367" />
      </symbol>
      <symbol
         overflow="visible"
         id="symbol7662">
        <path
           style="stroke:none;"
           d="M 2.328125 -4.4375 C 2.328125 -4.625 2.328125 -4.625 2.125 -4.625 C 1.671875 -4.1875 1.046875 -4.1875 0.765625 -4.1875 L 0.765625 -3.9375 C 0.921875 -3.9375 1.390625 -3.9375 1.765625 -4.125 L 1.765625 -0.578125 C 1.765625 -0.34375 1.765625 -0.25 1.078125 -0.25 L 0.8125 -0.25 L 0.8125 0 C 0.9375 0 1.796875 -0.03125 2.046875 -0.03125 C 2.265625 -0.03125 3.140625 0 3.296875 0 L 3.296875 -0.25 L 3.03125 -0.25 C 2.328125 -0.25 2.328125 -0.34375 2.328125 -0.578125 Z M 2.328125 -4.4375 "
           id="path4021" />
      </symbol>
    </g>
    <g
       id="g2325">
      <symbol
         overflow="visible"
         id="symbol8569">
        <path
           style="stroke:none;"
           d=""
           id="path3530" />
      </symbol>
      <symbol
         overflow="visible"
         id="symbol5257">
        <path
           style="stroke:none;"
           d="M 3.328125 -3.015625 C 3.390625 -3.265625 3.625 -4.1875 4.3125 -4.1875 C 4.359375 -4.1875 4.609375 -4.1875 4.8125 -4.0625 C 4.53125 -4 4.34375 -3.765625 4.34375 -3.515625 C 4.34375 -3.359375 4.453125 -3.171875 4.71875 -3.171875 C 4.9375 -3.171875 5.25 -3.34375 5.25 -3.75 C 5.25 -4.265625 4.671875 -4.40625 4.328125 -4.40625 C 3.75 -4.40625 3.40625 -3.875 3.28125 -3.65625 C 3.03125 -4.3125 2.5 -4.40625 2.203125 -4.40625 C 1.171875 -4.40625 0.59375 -3.125 0.59375 -2.875 C 0.59375 -2.765625 0.703125 -2.765625 0.71875 -2.765625 C 0.796875 -2.765625 0.828125 -2.796875 0.84375 -2.875 C 1.1875 -3.9375 1.84375 -4.1875 2.1875 -4.1875 C 2.375 -4.1875 2.71875 -4.09375 2.71875 -3.515625 C 2.71875 -3.203125 2.546875 -2.546875 2.1875 -1.140625 C 2.03125 -0.53125 1.671875 -0.109375 1.234375 -0.109375 C 1.171875 -0.109375 0.953125 -0.109375 0.734375 -0.234375 C 0.984375 -0.296875 1.203125 -0.5 1.203125 -0.78125 C 1.203125 -1.046875 0.984375 -1.125 0.84375 -1.125 C 0.53125 -1.125 0.296875 -0.875 0.296875 -0.546875 C 0.296875 -0.09375 0.78125 0.109375 1.21875 0.109375 C 1.890625 0.109375 2.25 -0.59375 2.265625 -0.640625 C 2.390625 -0.28125 2.75 0.109375 3.34375 0.109375 C 4.375 0.109375 4.9375 -1.171875 4.9375 -1.421875 C 4.9375 -1.53125 4.859375 -1.53125 4.828125 -1.53125 C 4.734375 -1.53125 4.71875 -1.484375 4.6875 -1.421875 C 4.359375 -0.34375 3.6875 -0.109375 3.375 -0.109375 C 2.984375 -0.109375 2.828125 -0.421875 2.828125 -0.765625 C 2.828125 -0.984375 2.875 -1.203125 2.984375 -1.640625 Z M 3.328125 -3.015625 "
           id="path8353" />
      </symbol>
      <symbol
         overflow="visible"
         id="symbol618">
        <path
           style="stroke:none;"
           d=""
           id="path9377" />
      </symbol>
      <symbol
         overflow="visible"
         id="symbol5541">
        <path
           style="stroke:none;"
           d="M 3.515625 -1.265625 L 3.28125 -1.265625 C 3.265625 -1.109375 3.1875 -0.703125 3.09375 -0.640625 C 3.046875 -0.59375 2.515625 -0.59375 2.40625 -0.59375 L 1.125 -0.59375 C 1.859375 -1.234375 2.109375 -1.4375 2.515625 -1.765625 C 3.03125 -2.171875 3.515625 -2.609375 3.515625 -3.265625 C 3.515625 -4.109375 2.78125 -4.625 1.890625 -4.625 C 1.03125 -4.625 0.4375 -4.015625 0.4375 -3.375 C 0.4375 -3.03125 0.734375 -2.984375 0.8125 -2.984375 C 0.96875 -2.984375 1.171875 -3.109375 1.171875 -3.359375 C 1.171875 -3.484375 1.125 -3.734375 0.765625 -3.734375 C 0.984375 -4.21875 1.453125 -4.375 1.78125 -4.375 C 2.484375 -4.375 2.84375 -3.828125 2.84375 -3.265625 C 2.84375 -2.65625 2.40625 -2.1875 2.1875 -1.9375 L 0.515625 -0.265625 C 0.4375 -0.203125 0.4375 -0.1875 0.4375 0 L 3.3125 0 Z M 3.515625 -1.265625 "
           id="path3553" />
      </symbol>
    </g>
    <g
       id="g3958">
      <symbol
         overflow="visible"
         id="symbol3283">
        <path
           style="stroke:none;"
           d=""
           id="path8716" />
      </symbol>
      <symbol
         overflow="visible"
         id="symbol5717">
        <path
           style="stroke:none;"
           d="M 4.609375 -3.375 C 4.65625 -3.59375 4.75 -3.96875 4.75 -4.03125 C 4.75 -4.203125 4.609375 -4.296875 4.46875 -4.296875 C 4.34375 -4.296875 4.171875 -4.21875 4.09375 -4.015625 C 4.0625 -3.953125 3.59375 -2.046875 3.53125 -1.78125 C 3.453125 -1.484375 3.4375 -1.3125 3.4375 -1.125 C 3.4375 -1.015625 3.4375 -1 3.453125 -0.953125 C 3.21875 -0.421875 2.921875 -0.109375 2.53125 -0.109375 C 1.734375 -0.109375 1.734375 -0.84375 1.734375 -1.015625 C 1.734375 -1.328125 1.78125 -1.71875 2.25 -2.953125 C 2.359375 -3.25 2.421875 -3.390625 2.421875 -3.59375 C 2.421875 -4.03125 2.09375 -4.40625 1.609375 -4.40625 C 0.65625 -4.40625 0.296875 -2.953125 0.296875 -2.875 C 0.296875 -2.765625 0.390625 -2.765625 0.40625 -2.765625 C 0.515625 -2.765625 0.515625 -2.796875 0.5625 -2.953125 C 0.84375 -3.875 1.21875 -4.1875 1.578125 -4.1875 C 1.671875 -4.1875 1.828125 -4.171875 1.828125 -3.859375 C 1.828125 -3.609375 1.71875 -3.328125 1.640625 -3.15625 C 1.203125 -1.984375 1.09375 -1.53125 1.09375 -1.140625 C 1.09375 -0.234375 1.75 0.109375 2.5 0.109375 C 2.671875 0.109375 3.140625 0.109375 3.53125 -0.59375 C 3.796875 0.046875 4.484375 0.109375 4.78125 0.109375 C 5.53125 0.109375 5.96875 -0.515625 6.234375 -1.109375 C 6.5625 -1.890625 6.890625 -3.234375 6.890625 -3.703125 C 6.890625 -4.25 6.625 -4.40625 6.453125 -4.40625 C 6.203125 -4.40625 5.953125 -4.140625 5.953125 -3.921875 C 5.953125 -3.796875 6.015625 -3.734375 6.09375 -3.65625 C 6.203125 -3.546875 6.453125 -3.296875 6.453125 -2.8125 C 6.453125 -2.46875 6.171875 -1.5 5.90625 -0.984375 C 5.65625 -0.453125 5.296875 -0.109375 4.8125 -0.109375 C 4.34375 -0.109375 4.078125 -0.40625 4.078125 -0.984375 C 4.078125 -1.25 4.140625 -1.5625 4.1875 -1.703125 Z M 4.609375 -3.375 "
           id="path2403" />
      </symbol>
      <symbol
         overflow="visible"
         id="symbol9640">
        <path
           style="stroke:none;"
           d=""
           id="path9148" />
      </symbol>
      <symbol
         overflow="visible"
         id="symbol4000">
        <path
           style="stroke:none;"
           d="M 3.515625 -1.265625 L 3.28125 -1.265625 C 3.265625 -1.109375 3.1875 -0.703125 3.09375 -0.640625 C 3.046875 -0.59375 2.515625 -0.59375 2.40625 -0.59375 L 1.125 -0.59375 C 1.859375 -1.234375 2.109375 -1.4375 2.515625 -1.765625 C 3.03125 -2.171875 3.515625 -2.609375 3.515625 -3.265625 C 3.515625 -4.109375 2.78125 -4.625 1.890625 -4.625 C 1.03125 -4.625 0.4375 -4.015625 0.4375 -3.375 C 0.4375 -3.03125 0.734375 -2.984375 0.8125 -2.984375 C 0.96875 -2.984375 1.171875 -3.109375 1.171875 -3.359375 C 1.171875 -3.484375 1.125 -3.734375 0.765625 -3.734375 C 0.984375 -4.21875 1.453125 -4.375 1.78125 -4.375 C 2.484375 -4.375 2.84375 -3.828125 2.84375 -3.265625 C 2.84375 -2.65625 2.40625 -2.1875 2.1875 -1.9375 L 0.515625 -0.265625 C 0.4375 -0.203125 0.4375 -0.1875 0.4375 0 L 3.3125 0 Z M 3.515625 -1.265625 "
           id="path6235" />
      </symbol>
    </g>
    <g
       id="g7890">
      <symbol
         overflow="visible"
         id="symbol5371">
        <path
           style="stroke:none;"
           d=""
           id="path8493" />
      </symbol>
      <symbol
         overflow="visible"
         id="symbol9701">
        <path
           style="stroke:none;"
           d="M 4.609375 -3.375 C 4.65625 -3.59375 4.75 -3.96875 4.75 -4.03125 C 4.75 -4.203125 4.609375 -4.296875 4.46875 -4.296875 C 4.34375 -4.296875 4.171875 -4.21875 4.09375 -4.015625 C 4.0625 -3.953125 3.59375 -2.046875 3.53125 -1.78125 C 3.453125 -1.484375 3.4375 -1.3125 3.4375 -1.125 C 3.4375 -1.015625 3.4375 -1 3.453125 -0.953125 C 3.21875 -0.421875 2.921875 -0.109375 2.53125 -0.109375 C 1.734375 -0.109375 1.734375 -0.84375 1.734375 -1.015625 C 1.734375 -1.328125 1.78125 -1.71875 2.25 -2.953125 C 2.359375 -3.25 2.421875 -3.390625 2.421875 -3.59375 C 2.421875 -4.03125 2.09375 -4.40625 1.609375 -4.40625 C 0.65625 -4.40625 0.296875 -2.953125 0.296875 -2.875 C 0.296875 -2.765625 0.390625 -2.765625 0.40625 -2.765625 C 0.515625 -2.765625 0.515625 -2.796875 0.5625 -2.953125 C 0.84375 -3.875 1.21875 -4.1875 1.578125 -4.1875 C 1.671875 -4.1875 1.828125 -4.171875 1.828125 -3.859375 C 1.828125 -3.609375 1.71875 -3.328125 1.640625 -3.15625 C 1.203125 -1.984375 1.09375 -1.53125 1.09375 -1.140625 C 1.09375 -0.234375 1.75 0.109375 2.5 0.109375 C 2.671875 0.109375 3.140625 0.109375 3.53125 -0.59375 C 3.796875 0.046875 4.484375 0.109375 4.78125 0.109375 C 5.53125 0.109375 5.96875 -0.515625 6.234375 -1.109375 C 6.5625 -1.890625 6.890625 -3.234375 6.890625 -3.703125 C 6.890625 -4.25 6.625 -4.40625 6.453125 -4.40625 C 6.203125 -4.40625 5.953125 -4.140625 5.953125 -3.921875 C 5.953125 -3.796875 6.015625 -3.734375 6.09375 -3.65625 C 6.203125 -3.546875 6.453125 -3.296875 6.453125 -2.8125 C 6.453125 -2.46875 6.171875 -1.5 5.90625 -0.984375 C 5.65625 -0.453125 5.296875 -0.109375 4.8125 -0.109375 C 4.34375 -0.109375 4.078125 -0.40625 4.078125 -0.984375 C 4.078125 -1.25 4.140625 -1.5625 4.1875 -1.703125 Z M 4.609375 -3.375 "
           id="path1459" />
      </symbol>
      <symbol
         overflow="visible"
         id="symbol7320">
        <path
           style="stroke:none;"
           d=""
           id="path5178" />
      </symbol>
      <symbol
         overflow="visible"
         id="symbol5679">
        <path
           style="stroke:none;"
           d="M 2.328125 -4.4375 C 2.328125 -4.625 2.328125 -4.625 2.125 -4.625 C 1.671875 -4.1875 1.046875 -4.1875 0.765625 -4.1875 L 0.765625 -3.9375 C 0.921875 -3.9375 1.390625 -3.9375 1.765625 -4.125 L 1.765625 -0.578125 C 1.765625 -0.34375 1.765625 -0.25 1.078125 -0.25 L 0.8125 -0.25 L 0.8125 0 C 0.9375 0 1.796875 -0.03125 2.046875 -0.03125 C 2.265625 -0.03125 3.140625 0 3.296875 0 L 3.296875 -0.25 L 3.03125 -0.25 C 2.328125 -0.25 2.328125 -0.34375 2.328125 -0.578125 Z M 2.328125 -4.4375 "
           id="path797" />
      </symbol>
    </g>
    <g
       id="g3453">
      <symbol
         overflow="visible"
         id="symbol9681">
        <path
           style="stroke:none;"
           d=""
           id="path7589" />
      </symbol>
      <symbol
         overflow="visible"
         id="symbol1768">
        <path
           style="stroke:none;"
           d="M 2.375 -6.8125 C 2.375 -6.8125 2.375 -6.921875 2.25 -6.921875 C 2.03125 -6.921875 1.296875 -6.84375 1.03125 -6.8125 C 0.953125 -6.8125 0.84375 -6.796875 0.84375 -6.625 C 0.84375 -6.5 0.9375 -6.5 1.09375 -6.5 C 1.5625 -6.5 1.578125 -6.4375 1.578125 -6.328125 C 1.578125 -6.265625 1.5 -5.921875 1.453125 -5.71875 L 0.625 -2.46875 C 0.515625 -1.96875 0.46875 -1.796875 0.46875 -1.453125 C 0.46875 -0.515625 1 0.109375 1.734375 0.109375 C 2.90625 0.109375 4.140625 -1.375 4.140625 -2.8125 C 4.140625 -3.71875 3.609375 -4.40625 2.8125 -4.40625 C 2.359375 -4.40625 1.9375 -4.109375 1.640625 -3.8125 Z M 1.453125 -3.046875 C 1.5 -3.265625 1.5 -3.28125 1.59375 -3.390625 C 2.078125 -4.03125 2.53125 -4.1875 2.796875 -4.1875 C 3.15625 -4.1875 3.421875 -3.890625 3.421875 -3.25 C 3.421875 -2.65625 3.09375 -1.515625 2.90625 -1.140625 C 2.578125 -0.46875 2.125 -0.109375 1.734375 -0.109375 C 1.390625 -0.109375 1.0625 -0.375 1.0625 -1.109375 C 1.0625 -1.3125 1.0625 -1.5 1.21875 -2.125 Z M 1.453125 -3.046875 "
           id="path6209" />
      </symbol>
    </g>
    <g
       id="g2575">
      <symbol
         overflow="visible"
         id="symbol2529">
        <path
           style="stroke:none;"
           d=""
           id="path2410" />
      </symbol>
      <symbol
         overflow="visible"
         id="symbol1053">
        <path
           style="stroke:none;"
           d="M 4.203125 5.328125 L 0.65625 9.703125 C 0.578125 9.796875 0.5625 9.8125 0.5625 9.859375 C 0.5625 9.96875 0.65625 9.96875 0.84375 9.96875 L 9.09375 9.96875 L 9.953125 7.484375 L 9.703125 7.484375 C 9.453125 8.234375 8.796875 8.84375 7.9375 9.125 C 7.78125 9.1875 7.09375 9.421875 5.625 9.421875 L 1.390625 9.421875 L 4.859375 5.140625 C 4.921875 5.046875 4.9375 5.03125 4.9375 4.984375 C 4.9375 4.9375 4.9375 4.9375 4.875 4.84375 L 1.640625 0.40625 L 5.578125 0.40625 C 6.71875 0.40625 9.015625 0.46875 9.703125 2.328125 L 9.953125 2.328125 L 9.09375 0 L 0.84375 0 C 0.5625 0 0.5625 0.015625 0.5625 0.3125 Z M 4.203125 5.328125 "
           id="path8902" />
      </symbol>
      <symbol
         overflow="visible"
         id="symbol3396">
        <path
           style="stroke:none;"
           d=""
           id="path1493" />
      </symbol>
      <symbol
         overflow="visible"
         id="symbol9385">
        <path
           style="stroke:none;"
           d="M 6.84375 -3.265625 C 7 -3.265625 7.1875 -3.265625 7.1875 -3.453125 C 7.1875 -3.65625 7 -3.65625 6.859375 -3.65625 L 0.890625 -3.65625 C 0.75 -3.65625 0.5625 -3.65625 0.5625 -3.453125 C 0.5625 -3.265625 0.75 -3.265625 0.890625 -3.265625 Z M 6.859375 -1.328125 C 7 -1.328125 7.1875 -1.328125 7.1875 -1.53125 C 7.1875 -1.71875 7 -1.71875 6.84375 -1.71875 L 0.890625 -1.71875 C 0.75 -1.71875 0.5625 -1.71875 0.5625 -1.53125 C 0.5625 -1.328125 0.75 -1.328125 0.890625 -1.328125 Z M 6.859375 -1.328125 "
           id="path1357" />
      </symbol>
      <symbol
         overflow="visible"
         id="symbol9068">
        <path
           style="stroke:none;"
           d="M 4.078125 -2.296875 L 6.859375 -2.296875 C 7 -2.296875 7.1875 -2.296875 7.1875 -2.5 C 7.1875 -2.6875 7 -2.6875 6.859375 -2.6875 L 4.078125 -2.6875 L 4.078125 -5.484375 C 4.078125 -5.625 4.078125 -5.8125 3.875 -5.8125 C 3.671875 -5.8125 3.671875 -5.625 3.671875 -5.484375 L 3.671875 -2.6875 L 0.890625 -2.6875 C 0.75 -2.6875 0.5625 -2.6875 0.5625 -2.5 C 0.5625 -2.296875 0.75 -2.296875 0.890625 -2.296875 L 3.671875 -2.296875 L 3.671875 0.5 C 3.671875 0.640625 3.671875 0.828125 3.875 0.828125 C 4.078125 0.828125 4.078125 0.640625 4.078125 0.5 Z M 4.078125 -2.296875 "
           id="path5859" />
      </symbol>
      <symbol
         overflow="visible"
         id="symbol1359">
        <path
           style="stroke:none;"
           d=""
           id="path1540" />
      </symbol>
      <symbol
         overflow="visible"
         id="symbol9297">
        <path
           style="stroke:none;"
           d="M 3.328125 -3.015625 C 3.390625 -3.265625 3.625 -4.1875 4.3125 -4.1875 C 4.359375 -4.1875 4.609375 -4.1875 4.8125 -4.0625 C 4.53125 -4 4.34375 -3.765625 4.34375 -3.515625 C 4.34375 -3.359375 4.453125 -3.171875 4.71875 -3.171875 C 4.9375 -3.171875 5.25 -3.34375 5.25 -3.75 C 5.25 -4.265625 4.671875 -4.40625 4.328125 -4.40625 C 3.75 -4.40625 3.40625 -3.875 3.28125 -3.65625 C 3.03125 -4.3125 2.5 -4.40625 2.203125 -4.40625 C 1.171875 -4.40625 0.59375 -3.125 0.59375 -2.875 C 0.59375 -2.765625 0.703125 -2.765625 0.71875 -2.765625 C 0.796875 -2.765625 0.828125 -2.796875 0.84375 -2.875 C 1.1875 -3.9375 1.84375 -4.1875 2.1875 -4.1875 C 2.375 -4.1875 2.71875 -4.09375 2.71875 -3.515625 C 2.71875 -3.203125 2.546875 -2.546875 2.1875 -1.140625 C 2.03125 -0.53125 1.671875 -0.109375 1.234375 -0.109375 C 1.171875 -0.109375 0.953125 -0.109375 0.734375 -0.234375 C 0.984375 -0.296875 1.203125 -0.5 1.203125 -0.78125 C 1.203125 -1.046875 0.984375 -1.125 0.84375 -1.125 C 0.53125 -1.125 0.296875 -0.875 0.296875 -0.546875 C 0.296875 -0.09375 0.78125 0.109375 1.21875 0.109375 C 1.890625 0.109375 2.25 -0.59375 2.265625 -0.640625 C 2.390625 -0.28125 2.75 0.109375 3.34375 0.109375 C 4.375 0.109375 4.9375 -1.171875 4.9375 -1.421875 C 4.9375 -1.53125 4.859375 -1.53125 4.828125 -1.53125 C 4.734375 -1.53125 4.71875 -1.484375 4.6875 -1.421875 C 4.359375 -0.34375 3.6875 -0.109375 3.375 -0.109375 C 2.984375 -0.109375 2.828125 -0.421875 2.828125 -0.765625 C 2.828125 -0.984375 2.875 -1.203125 2.984375 -1.640625 Z M 3.328125 -3.015625 "
           id="path8042" />
      </symbol>
      <symbol
         overflow="visible"
         id="symbol2713">
        <path
           style="stroke:none;"
           d="M 4.609375 -3.375 C 4.65625 -3.59375 4.75 -3.96875 4.75 -4.03125 C 4.75 -4.203125 4.609375 -4.296875 4.46875 -4.296875 C 4.34375 -4.296875 4.171875 -4.21875 4.09375 -4.015625 C 4.0625 -3.953125 3.59375 -2.046875 3.53125 -1.78125 C 3.453125 -1.484375 3.4375 -1.3125 3.4375 -1.125 C 3.4375 -1.015625 3.4375 -1 3.453125 -0.953125 C 3.21875 -0.421875 2.921875 -0.109375 2.53125 -0.109375 C 1.734375 -0.109375 1.734375 -0.84375 1.734375 -1.015625 C 1.734375 -1.328125 1.78125 -1.71875 2.25 -2.953125 C 2.359375 -3.25 2.421875 -3.390625 2.421875 -3.59375 C 2.421875 -4.03125 2.09375 -4.40625 1.609375 -4.40625 C 0.65625 -4.40625 0.296875 -2.953125 0.296875 -2.875 C 0.296875 -2.765625 0.390625 -2.765625 0.40625 -2.765625 C 0.515625 -2.765625 0.515625 -2.796875 0.5625 -2.953125 C 0.84375 -3.875 1.21875 -4.1875 1.578125 -4.1875 C 1.671875 -4.1875 1.828125 -4.171875 1.828125 -3.859375 C 1.828125 -3.609375 1.71875 -3.328125 1.640625 -3.15625 C 1.203125 -1.984375 1.09375 -1.53125 1.09375 -1.140625 C 1.09375 -0.234375 1.75 0.109375 2.5 0.109375 C 2.671875 0.109375 3.140625 0.109375 3.53125 -0.59375 C 3.796875 0.046875 4.484375 0.109375 4.78125 0.109375 C 5.53125 0.109375 5.96875 -0.515625 6.234375 -1.109375 C 6.5625 -1.890625 6.890625 -3.234375 6.890625 -3.703125 C 6.890625 -4.25 6.625 -4.40625 6.453125 -4.40625 C 6.203125 -4.40625 5.953125 -4.140625 5.953125 -3.921875 C 5.953125 -3.796875 6.015625 -3.734375 6.09375 -3.65625 C 6.203125 -3.546875 6.453125 -3.296875 6.453125 -2.8125 C 6.453125 -2.46875 6.171875 -1.5 5.90625 -0.984375 C 5.65625 -0.453125 5.296875 -0.109375 4.8125 -0.109375 C 4.34375 -0.109375 4.078125 -0.40625 4.078125 -0.984375 C 4.078125 -1.25 4.140625 -1.5625 4.1875 -1.703125 Z M 4.609375 -3.375 "
           id="path5686" />
      </symbol>
      <symbol
         overflow="visible"
         id="symbol1616">
        <path
           style="stroke:none;"
           d="M 2.375 -6.8125 C 2.375 -6.8125 2.375 -6.921875 2.25 -6.921875 C 2.03125 -6.921875 1.296875 -6.84375 1.03125 -6.8125 C 0.953125 -6.8125 0.84375 -6.796875 0.84375 -6.625 C 0.84375 -6.5 0.9375 -6.5 1.09375 -6.5 C 1.5625 -6.5 1.578125 -6.4375 1.578125 -6.328125 C 1.578125 -6.265625 1.5 -5.921875 1.453125 -5.71875 L 0.625 -2.46875 C 0.515625 -1.96875 0.46875 -1.796875 0.46875 -1.453125 C 0.46875 -0.515625 1 0.109375 1.734375 0.109375 C 2.90625 0.109375 4.140625 -1.375 4.140625 -2.8125 C 4.140625 -3.71875 3.609375 -4.40625 2.8125 -4.40625 C 2.359375 -4.40625 1.9375 -4.109375 1.640625 -3.8125 Z M 1.453125 -3.046875 C 1.5 -3.265625 1.5 -3.28125 1.59375 -3.390625 C 2.078125 -4.03125 2.53125 -4.1875 2.796875 -4.1875 C 3.15625 -4.1875 3.421875 -3.890625 3.421875 -3.25 C 3.421875 -2.65625 3.09375 -1.515625 2.90625 -1.140625 C 2.578125 -0.46875 2.125 -0.109375 1.734375 -0.109375 C 1.390625 -0.109375 1.0625 -0.375 1.0625 -1.109375 C 1.0625 -1.3125 1.0625 -1.5 1.21875 -2.125 Z M 1.453125 -3.046875 "
           id="path193" />
      </symbol>
      <symbol
         overflow="visible"
         id="symbol1178">
        <path
           style="stroke:none;"
           d=""
           id="path7842" />
      </symbol>
      <symbol
         overflow="visible"
         id="symbol4028">
        <path
           style="stroke:none;"
           d="M 2.328125 -4.4375 C 2.328125 -4.625 2.328125 -4.625 2.125 -4.625 C 1.671875 -4.1875 1.046875 -4.1875 0.765625 -4.1875 L 0.765625 -3.9375 C 0.921875 -3.9375 1.390625 -3.9375 1.765625 -4.125 L 1.765625 -0.578125 C 1.765625 -0.34375 1.765625 -0.25 1.078125 -0.25 L 0.8125 -0.25 L 0.8125 0 C 0.9375 0 1.796875 -0.03125 2.046875 -0.03125 C 2.265625 -0.03125 3.140625 0 3.296875 0 L 3.296875 -0.25 L 3.03125 -0.25 C 2.328125 -0.25 2.328125 -0.34375 2.328125 -0.578125 Z M 2.328125 -4.4375 "
           id="path7126" />
      </symbol>
      <symbol
         overflow="visible"
         id="symbol1361">
        <path
           style="stroke:none;"
           d="M 3.515625 -1.265625 L 3.28125 -1.265625 C 3.265625 -1.109375 3.1875 -0.703125 3.09375 -0.640625 C 3.046875 -0.59375 2.515625 -0.59375 2.40625 -0.59375 L 1.125 -0.59375 C 1.859375 -1.234375 2.109375 -1.4375 2.515625 -1.765625 C 3.03125 -2.171875 3.515625 -2.609375 3.515625 -3.265625 C 3.515625 -4.109375 2.78125 -4.625 1.890625 -4.625 C 1.03125 -4.625 0.4375 -4.015625 0.4375 -3.375 C 0.4375 -3.03125 0.734375 -2.984375 0.8125 -2.984375 C 0.96875 -2.984375 1.171875 -3.109375 1.171875 -3.359375 C 1.171875 -3.484375 1.125 -3.734375 0.765625 -3.734375 C 0.984375 -4.21875 1.453125 -4.375 1.78125 -4.375 C 2.484375 -4.375 2.84375 -3.828125 2.84375 -3.265625 C 2.84375 -2.65625 2.40625 -2.1875 2.1875 -1.9375 L 0.515625 -0.265625 C 0.4375 -0.203125 0.4375 -0.1875 0.4375 0 L 3.3125 0 Z M 3.515625 -1.265625 "
           id="path1651" />
      </symbol>
      <symbol
         overflow="visible"
         id="symbol2781">
        <path
           style="stroke:none;"
           d=""
           id="path9516" />
      </symbol>
      <symbol
         overflow="visible"
         id="symbol358">
        <path
           style="stroke:none;"
           d="M 1.90625 -2.5 C 1.90625 -2.78125 1.671875 -3.015625 1.390625 -3.015625 C 1.09375 -3.015625 0.859375 -2.78125 0.859375 -2.5 C 0.859375 -2.203125 1.09375 -1.96875 1.390625 -1.96875 C 1.671875 -1.96875 1.90625 -2.203125 1.90625 -2.5 Z M 1.90625 -2.5 "
           id="path1312" />
      </symbol>
    </g>
    <g
       id="g3721">
      <symbol
         overflow="visible"
         id="symbol4895">
        <path
           style="stroke:none;"
           d=""
           id="path3612" />
      </symbol>
      <symbol
         overflow="visible"
         id="symbol5363">
        <path
           style="stroke:none;"
           d="M 7.1875 -3.375 C 7.1875 -5.40625 5.6875 -7.03125 3.875 -7.03125 C 2.078125 -7.03125 0.5625 -5.4375 0.5625 -3.375 C 0.5625 -1.328125 2.09375 0.21875 3.875 0.21875 C 5.6875 0.21875 7.1875 -1.359375 7.1875 -3.375 Z M 3.875 -0.046875 C 2.921875 -0.046875 1.578125 -0.921875 1.578125 -3.515625 C 1.578125 -6.09375 3.046875 -6.78125 3.875 -6.78125 C 4.734375 -6.78125 6.15625 -6.078125 6.15625 -3.515625 C 6.15625 -0.875 4.796875 -0.046875 3.875 -0.046875 Z M 3.875 -0.046875 "
           id="path6426" />
      </symbol>
      <symbol
         overflow="visible"
         id="symbol613">
        <path
           style="stroke:none;"
           d="M 3.890625 -0.78125 L 3.890625 0.109375 L 5.328125 0 L 5.328125 -0.3125 C 4.640625 -0.3125 4.5625 -0.375 4.5625 -0.875 L 4.5625 -4.40625 L 3.09375 -4.296875 L 3.09375 -3.984375 C 3.78125 -3.984375 3.875 -3.921875 3.875 -3.421875 L 3.875 -1.65625 C 3.875 -0.78125 3.390625 -0.109375 2.65625 -0.109375 C 1.828125 -0.109375 1.78125 -0.578125 1.78125 -1.09375 L 1.78125 -4.40625 L 0.3125 -4.296875 L 0.3125 -3.984375 C 1.09375 -3.984375 1.09375 -3.953125 1.09375 -3.078125 L 1.09375 -1.578125 C 1.09375 -0.796875 1.09375 0.109375 2.609375 0.109375 C 3.171875 0.109375 3.609375 -0.171875 3.890625 -0.78125 Z M 3.890625 -0.78125 "
           id="path8911" />
      </symbol>
      <symbol
         overflow="visible"
         id="symbol5129">
        <path
           style="stroke:none;"
           d="M 1.71875 -3.984375 L 3.15625 -3.984375 L 3.15625 -4.296875 L 1.71875 -4.296875 L 1.71875 -6.125 L 1.46875 -6.125 C 1.46875 -5.3125 1.171875 -4.25 0.1875 -4.203125 L 0.1875 -3.984375 L 1.03125 -3.984375 L 1.03125 -1.234375 C 1.03125 -0.015625 1.96875 0.109375 2.328125 0.109375 C 3.03125 0.109375 3.3125 -0.59375 3.3125 -1.234375 L 3.3125 -1.796875 L 3.0625 -1.796875 L 3.0625 -1.25 C 3.0625 -0.515625 2.765625 -0.140625 2.390625 -0.140625 C 1.71875 -0.140625 1.71875 -1.046875 1.71875 -1.21875 Z M 1.71875 -3.984375 "
           id="path7176" />
      </symbol>
      <symbol
         overflow="visible"
         id="symbol1535">
        <path
           style="stroke:none;"
           d="M 1.71875 -3.75 L 1.71875 -4.40625 L 0.28125 -4.296875 L 0.28125 -3.984375 C 0.984375 -3.984375 1.0625 -3.921875 1.0625 -3.484375 L 1.0625 1.171875 C 1.0625 1.625 0.953125 1.625 0.28125 1.625 L 0.28125 1.9375 C 0.625 1.921875 1.140625 1.90625 1.390625 1.90625 C 1.671875 1.90625 2.171875 1.921875 2.515625 1.9375 L 2.515625 1.625 C 1.859375 1.625 1.75 1.625 1.75 1.171875 L 1.75 -0.59375 C 1.796875 -0.421875 2.21875 0.109375 2.96875 0.109375 C 4.15625 0.109375 5.1875 -0.875 5.1875 -2.15625 C 5.1875 -3.421875 4.234375 -4.40625 3.109375 -4.40625 C 2.328125 -4.40625 1.90625 -3.96875 1.71875 -3.75 Z M 1.75 -1.140625 L 1.75 -3.359375 C 2.03125 -3.875 2.515625 -4.15625 3.03125 -4.15625 C 3.765625 -4.15625 4.359375 -3.28125 4.359375 -2.15625 C 4.359375 -0.953125 3.671875 -0.109375 2.9375 -0.109375 C 2.53125 -0.109375 2.15625 -0.3125 1.890625 -0.71875 C 1.75 -0.921875 1.75 -0.9375 1.75 -1.140625 Z M 1.75 -1.140625 "
           id="path9792" />
      </symbol>
      <symbol
         overflow="visible"
         id="symbol9817">
        <path
           style="stroke:none;"
           d="M 6.84375 -3.265625 C 7 -3.265625 7.1875 -3.265625 7.1875 -3.453125 C 7.1875 -3.65625 7 -3.65625 6.859375 -3.65625 L 0.890625 -3.65625 C 0.75 -3.65625 0.5625 -3.65625 0.5625 -3.453125 C 0.5625 -3.265625 0.75 -3.265625 0.890625 -3.265625 Z M 6.859375 -1.328125 C 7 -1.328125 7.1875 -1.328125 7.1875 -1.53125 C 7.1875 -1.71875 7 -1.71875 6.84375 -1.71875 L 0.890625 -1.71875 C 0.75 -1.71875 0.5625 -1.71875 0.5625 -1.53125 C 0.5625 -1.328125 0.75 -1.328125 0.890625 -1.328125 Z M 6.859375 -1.328125 "
           id="path8407" />
      </symbol>
      <symbol
         overflow="visible"
         id="symbol6904">
        <path
           style="stroke:none;"
           d="M 3.296875 2.390625 C 3.296875 2.359375 3.296875 2.34375 3.125 2.171875 C 1.890625 0.921875 1.5625 -0.96875 1.5625 -2.5 C 1.5625 -4.234375 1.9375 -5.96875 3.171875 -7.203125 C 3.296875 -7.328125 3.296875 -7.34375 3.296875 -7.375 C 3.296875 -7.453125 3.265625 -7.484375 3.203125 -7.484375 C 3.09375 -7.484375 2.203125 -6.796875 1.609375 -5.53125 C 1.109375 -4.4375 0.984375 -3.328125 0.984375 -2.5 C 0.984375 -1.71875 1.09375 -0.515625 1.640625 0.625 C 2.25 1.84375 3.09375 2.5 3.203125 2.5 C 3.265625 2.5 3.296875 2.46875 3.296875 2.390625 Z M 3.296875 2.390625 "
           id="path7754" />
      </symbol>
      <symbol
         overflow="visible"
         id="symbol2570">
        <path
           style="stroke:none;"
           d="M 2.875 -2.5 C 2.875 -3.265625 2.765625 -4.46875 2.21875 -5.609375 C 1.625 -6.828125 0.765625 -7.484375 0.671875 -7.484375 C 0.609375 -7.484375 0.5625 -7.4375 0.5625 -7.375 C 0.5625 -7.34375 0.5625 -7.328125 0.75 -7.140625 C 1.734375 -6.15625 2.296875 -4.578125 2.296875 -2.5 C 2.296875 -0.78125 1.9375 0.96875 0.703125 2.21875 C 0.5625 2.34375 0.5625 2.359375 0.5625 2.390625 C 0.5625 2.453125 0.609375 2.5 0.671875 2.5 C 0.765625 2.5 1.671875 1.8125 2.25 0.546875 C 2.765625 -0.546875 2.875 -1.65625 2.875 -2.5 Z M 2.875 -2.5 "
           id="path3672" />
      </symbol>
      <symbol
         overflow="visible"
         id="symbol3951">
        <path
           style="stroke:none;"
           d=""
           id="path2835" />
      </symbol>
      <symbol
         overflow="visible"
         id="symbol3959">
        <path
           style="stroke:none;"
           d="M 3.65625 -3.984375 L 4.515625 -3.984375 C 4.71875 -3.984375 4.8125 -3.984375 4.8125 -4.1875 C 4.8125 -4.296875 4.71875 -4.296875 4.546875 -4.296875 L 3.71875 -4.296875 L 3.921875 -5.4375 C 3.96875 -5.640625 4.109375 -6.34375 4.171875 -6.46875 C 4.25 -6.65625 4.421875 -6.8125 4.640625 -6.8125 C 4.671875 -6.8125 4.9375 -6.8125 5.125 -6.625 C 4.6875 -6.59375 4.578125 -6.234375 4.578125 -6.09375 C 4.578125 -5.859375 4.765625 -5.734375 4.953125 -5.734375 C 5.21875 -5.734375 5.5 -5.96875 5.5 -6.34375 C 5.5 -6.796875 5.046875 -7.03125 4.640625 -7.03125 C 4.296875 -7.03125 3.671875 -6.84375 3.375 -5.859375 C 3.3125 -5.65625 3.28125 -5.546875 3.046875 -4.296875 L 2.359375 -4.296875 C 2.15625 -4.296875 2.046875 -4.296875 2.046875 -4.109375 C 2.046875 -3.984375 2.140625 -3.984375 2.328125 -3.984375 L 2.984375 -3.984375 L 2.25 -0.046875 C 2.0625 0.921875 1.890625 1.828125 1.375 1.828125 C 1.328125 1.828125 1.09375 1.828125 0.890625 1.640625 C 1.359375 1.609375 1.453125 1.25 1.453125 1.109375 C 1.453125 0.875 1.265625 0.75 1.078125 0.75 C 0.8125 0.75 0.53125 0.984375 0.53125 1.359375 C 0.53125 1.796875 0.96875 2.046875 1.375 2.046875 C 1.921875 2.046875 2.328125 1.453125 2.5 1.078125 C 2.828125 0.453125 3.046875 -0.75 3.0625 -0.828125 Z M 3.65625 -3.984375 "
           id="path6413" />
      </symbol>
      <symbol
         overflow="visible"
         id="symbol3426">
        <path
           style="stroke:none;"
           d=""
           id="path7983" />
      </symbol>
      <symbol
         overflow="visible"
         id="symbol7532">
        <path
           style="stroke:none;"
           d="M 4.203125 5.328125 L 0.65625 9.703125 C 0.578125 9.796875 0.5625 9.8125 0.5625 9.859375 C 0.5625 9.96875 0.65625 9.96875 0.84375 9.96875 L 9.09375 9.96875 L 9.953125 7.484375 L 9.703125 7.484375 C 9.453125 8.234375 8.796875 8.84375 7.9375 9.125 C 7.78125 9.1875 7.09375 9.421875 5.625 9.421875 L 1.390625 9.421875 L 4.859375 5.140625 C 4.921875 5.046875 4.9375 5.03125 4.9375 4.984375 C 4.9375 4.9375 4.9375 4.9375 4.875 4.84375 L 1.640625 0.40625 L 5.578125 0.40625 C 6.71875 0.40625 9.015625 0.46875 9.703125 2.328125 L 9.953125 2.328125 L 9.09375 0 L 0.84375 0 C 0.5625 0 0.5625 0.015625 0.5625 0.3125 Z M 4.203125 5.328125 "
           id="path6411" />
      </symbol>
    </g>
    <g
       id="g4084">
      <symbol
         overflow="visible"
         id="symbol3298">
        <path
           style="stroke:none;"
           d=""
           id="path6622" />
      </symbol>
      <symbol
         overflow="visible"
         id="symbol593">
        <path
           style="stroke:none;"
           d="M 7.1875 -3.375 C 7.1875 -5.40625 5.6875 -7.03125 3.875 -7.03125 C 2.078125 -7.03125 0.5625 -5.4375 0.5625 -3.375 C 0.5625 -1.328125 2.09375 0.21875 3.875 0.21875 C 5.6875 0.21875 7.1875 -1.359375 7.1875 -3.375 Z M 3.875 -0.046875 C 2.921875 -0.046875 1.578125 -0.921875 1.578125 -3.515625 C 1.578125 -6.09375 3.046875 -6.78125 3.875 -6.78125 C 4.734375 -6.78125 6.15625 -6.078125 6.15625 -3.515625 C 6.15625 -0.875 4.796875 -0.046875 3.875 -0.046875 Z M 3.875 -0.046875 "
           id="path2124" />
      </symbol>
      <symbol
         overflow="visible"
         id="symbol4623">
        <path
           style="stroke:none;"
           d="M 3.890625 -0.78125 L 3.890625 0.109375 L 5.328125 0 L 5.328125 -0.3125 C 4.640625 -0.3125 4.5625 -0.375 4.5625 -0.875 L 4.5625 -4.40625 L 3.09375 -4.296875 L 3.09375 -3.984375 C 3.78125 -3.984375 3.875 -3.921875 3.875 -3.421875 L 3.875 -1.65625 C 3.875 -0.78125 3.390625 -0.109375 2.65625 -0.109375 C 1.828125 -0.109375 1.78125 -0.578125 1.78125 -1.09375 L 1.78125 -4.40625 L 0.3125 -4.296875 L 0.3125 -3.984375 C 1.09375 -3.984375 1.09375 -3.953125 1.09375 -3.078125 L 1.09375 -1.578125 C 1.09375 -0.796875 1.09375 0.109375 2.609375 0.109375 C 3.171875 0.109375 3.609375 -0.171875 3.890625 -0.78125 Z M 3.890625 -0.78125 "
           id="path2888" />
      </symbol>
      <symbol
         overflow="visible"
         id="symbol7344">
        <path
           style="stroke:none;"
           d="M 1.71875 -3.984375 L 3.15625 -3.984375 L 3.15625 -4.296875 L 1.71875 -4.296875 L 1.71875 -6.125 L 1.46875 -6.125 C 1.46875 -5.3125 1.171875 -4.25 0.1875 -4.203125 L 0.1875 -3.984375 L 1.03125 -3.984375 L 1.03125 -1.234375 C 1.03125 -0.015625 1.96875 0.109375 2.328125 0.109375 C 3.03125 0.109375 3.3125 -0.59375 3.3125 -1.234375 L 3.3125 -1.796875 L 3.0625 -1.796875 L 3.0625 -1.25 C 3.0625 -0.515625 2.765625 -0.140625 2.390625 -0.140625 C 1.71875 -0.140625 1.71875 -1.046875 1.71875 -1.21875 Z M 1.71875 -3.984375 "
           id="path530" />
      </symbol>
      <symbol
         overflow="visible"
         id="symbol6874">
        <path
           style="stroke:none;"
           d="M 1.71875 -3.75 L 1.71875 -4.40625 L 0.28125 -4.296875 L 0.28125 -3.984375 C 0.984375 -3.984375 1.0625 -3.921875 1.0625 -3.484375 L 1.0625 1.171875 C 1.0625 1.625 0.953125 1.625 0.28125 1.625 L 0.28125 1.9375 C 0.625 1.921875 1.140625 1.90625 1.390625 1.90625 C 1.671875 1.90625 2.171875 1.921875 2.515625 1.9375 L 2.515625 1.625 C 1.859375 1.625 1.75 1.625 1.75 1.171875 L 1.75 -0.59375 C 1.796875 -0.421875 2.21875 0.109375 2.96875 0.109375 C 4.15625 0.109375 5.1875 -0.875 5.1875 -2.15625 C 5.1875 -3.421875 4.234375 -4.40625 3.109375 -4.40625 C 2.328125 -4.40625 1.90625 -3.96875 1.71875 -3.75 Z M 1.75 -1.140625 L 1.75 -3.359375 C 2.03125 -3.875 2.515625 -4.15625 3.03125 -4.15625 C 3.765625 -4.15625 4.359375 -3.28125 4.359375 -2.15625 C 4.359375 -0.953125 3.671875 -0.109375 2.9375 -0.109375 C 2.53125 -0.109375 2.15625 -0.3125 1.890625 -0.71875 C 1.75 -0.921875 1.75 -0.9375 1.75 -1.140625 Z M 1.75 -1.140625 "
           id="path7305" />
      </symbol>
      <symbol
         overflow="visible"
         id="symbol2754">
        <path
           style="stroke:none;"
           d="M 6.84375 -3.265625 C 7 -3.265625 7.1875 -3.265625 7.1875 -3.453125 C 7.1875 -3.65625 7 -3.65625 6.859375 -3.65625 L 0.890625 -3.65625 C 0.75 -3.65625 0.5625 -3.65625 0.5625 -3.453125 C 0.5625 -3.265625 0.75 -3.265625 0.890625 -3.265625 Z M 6.859375 -1.328125 C 7 -1.328125 7.1875 -1.328125 7.1875 -1.53125 C 7.1875 -1.71875 7 -1.71875 6.84375 -1.71875 L 0.890625 -1.71875 C 0.75 -1.71875 0.5625 -1.71875 0.5625 -1.53125 C 0.5625 -1.328125 0.75 -1.328125 0.890625 -1.328125 Z M 6.859375 -1.328125 "
           id="path6745" />
      </symbol>
      <symbol
         overflow="visible"
         id="symbol3502">
        <path
           style="stroke:none;"
           d="M 3.96875 -6.9375 C 3.921875 -7.0625 3.890625 -7.140625 3.734375 -7.140625 C 3.578125 -7.140625 3.546875 -7.078125 3.5 -6.9375 L 1.4375 -0.984375 C 1.25 -0.46875 0.859375 -0.3125 0.3125 -0.3125 L 0.3125 0 C 0.546875 -0.015625 0.984375 -0.03125 1.328125 -0.03125 C 1.640625 -0.03125 2.15625 -0.015625 2.484375 0 L 2.484375 -0.3125 C 1.984375 -0.3125 1.734375 -0.5625 1.734375 -0.8125 C 1.734375 -0.84375 1.75 -0.953125 1.75 -0.96875 L 2.21875 -2.265625 L 4.671875 -2.265625 L 5.203125 -0.75 C 5.21875 -0.703125 5.234375 -0.640625 5.234375 -0.609375 C 5.234375 -0.3125 4.671875 -0.3125 4.40625 -0.3125 L 4.40625 0 C 4.765625 -0.03125 5.46875 -0.03125 5.84375 -0.03125 C 6.265625 -0.03125 6.734375 -0.015625 7.140625 0 L 7.140625 -0.3125 L 6.96875 -0.3125 C 6.375 -0.3125 6.234375 -0.375 6.125 -0.703125 Z M 3.4375 -5.828125 L 4.5625 -2.578125 L 2.328125 -2.578125 Z M 3.4375 -5.828125 "
           id="path4321" />
      </symbol>
      <symbol
         overflow="visible"
         id="symbol4980">
        <path
           style="stroke:none;"
           d="M 1.0625 -0.75 C 1.0625 -0.3125 0.953125 -0.3125 0.28125 -0.3125 L 0.28125 0 C 0.609375 -0.015625 1.078125 -0.03125 1.359375 -0.03125 C 1.671875 -0.03125 2.0625 -0.015625 2.46875 0 L 2.46875 -0.3125 C 1.796875 -0.3125 1.6875 -0.3125 1.6875 -0.75 L 1.6875 -1.78125 L 2.328125 -2.328125 C 3.09375 -1.28125 3.515625 -0.71875 3.515625 -0.53125 C 3.515625 -0.34375 3.34375 -0.3125 3.15625 -0.3125 L 3.15625 0 C 3.421875 -0.015625 4.015625 -0.03125 4.234375 -0.03125 C 4.515625 -0.03125 4.8125 -0.015625 5.09375 0 L 5.09375 -0.3125 C 4.71875 -0.3125 4.5 -0.3125 4.125 -0.84375 L 2.859375 -2.625 C 2.84375 -2.640625 2.796875 -2.703125 2.796875 -2.734375 C 2.796875 -2.765625 3.515625 -3.375 3.609375 -3.453125 C 4.234375 -3.953125 4.65625 -3.984375 4.859375 -3.984375 L 4.859375 -4.296875 C 4.578125 -4.265625 4.453125 -4.265625 4.171875 -4.265625 C 3.8125 -4.265625 3.1875 -4.28125 3.046875 -4.296875 L 3.046875 -3.984375 C 3.234375 -3.984375 3.34375 -3.875 3.34375 -3.734375 C 3.34375 -3.53125 3.203125 -3.421875 3.125 -3.34375 L 1.71875 -2.140625 L 1.71875 -6.921875 L 0.28125 -6.8125 L 0.28125 -6.5 C 0.984375 -6.5 1.0625 -6.4375 1.0625 -5.9375 Z M 1.0625 -0.75 "
           id="path1483" />
      </symbol>
      <symbol
         overflow="visible"
         id="symbol8181">
        <path
           style="stroke:none;"
           d="M 1.765625 -4.40625 L 0.375 -4.296875 L 0.375 -3.984375 C 1.015625 -3.984375 1.109375 -3.921875 1.109375 -3.4375 L 1.109375 -0.75 C 1.109375 -0.3125 1 -0.3125 0.328125 -0.3125 L 0.328125 0 C 0.640625 -0.015625 1.1875 -0.03125 1.421875 -0.03125 C 1.78125 -0.03125 2.125 -0.015625 2.46875 0 L 2.46875 -0.3125 C 1.796875 -0.3125 1.765625 -0.359375 1.765625 -0.75 Z M 1.796875 -6.140625 C 1.796875 -6.453125 1.5625 -6.671875 1.28125 -6.671875 C 0.96875 -6.671875 0.75 -6.40625 0.75 -6.140625 C 0.75 -5.875 0.96875 -5.609375 1.28125 -5.609375 C 1.5625 -5.609375 1.796875 -5.828125 1.796875 -6.140625 Z M 1.796875 -6.140625 "
           id="path8867" />
      </symbol>
      <symbol
         overflow="visible"
         id="symbol4846">
        <path
           style="stroke:none;"
           d="M 4.140625 -3.3125 C 4.234375 -3.546875 4.40625 -3.984375 5.0625 -3.984375 L 5.0625 -4.296875 C 4.828125 -4.28125 4.546875 -4.265625 4.3125 -4.265625 C 4.078125 -4.265625 3.625 -4.28125 3.453125 -4.296875 L 3.453125 -3.984375 C 3.8125 -3.984375 3.921875 -3.75 3.921875 -3.5625 C 3.921875 -3.46875 3.90625 -3.421875 3.875 -3.3125 L 2.84375 -0.78125 L 1.734375 -3.5625 C 1.671875 -3.6875 1.671875 -3.703125 1.671875 -3.734375 C 1.671875 -3.984375 2.0625 -3.984375 2.25 -3.984375 L 2.25 -4.296875 C 1.9375 -4.28125 1.390625 -4.265625 1.15625 -4.265625 C 0.890625 -4.265625 0.484375 -4.28125 0.1875 -4.296875 L 0.1875 -3.984375 C 0.8125 -3.984375 0.859375 -3.921875 0.984375 -3.625 L 2.421875 -0.078125 C 2.484375 0.0625 2.5 0.109375 2.625 0.109375 C 2.765625 0.109375 2.796875 0.015625 2.84375 -0.078125 Z M 4.140625 -3.3125 "
           id="path3550" />
      </symbol>
      <symbol
         overflow="visible"
         id="symbol6491">
        <path
           style="stroke:none;"
           d="M 1.109375 -2.515625 C 1.171875 -4 2.015625 -4.25 2.359375 -4.25 C 3.375 -4.25 3.484375 -2.90625 3.484375 -2.515625 Z M 1.109375 -2.296875 L 3.890625 -2.296875 C 4.109375 -2.296875 4.140625 -2.296875 4.140625 -2.515625 C 4.140625 -3.5 3.59375 -4.46875 2.359375 -4.46875 C 1.203125 -4.46875 0.28125 -3.4375 0.28125 -2.1875 C 0.28125 -0.859375 1.328125 0.109375 2.46875 0.109375 C 3.6875 0.109375 4.140625 -1 4.140625 -1.1875 C 4.140625 -1.28125 4.0625 -1.3125 4 -1.3125 C 3.921875 -1.3125 3.890625 -1.25 3.875 -1.171875 C 3.53125 -0.140625 2.625 -0.140625 2.53125 -0.140625 C 2.03125 -0.140625 1.640625 -0.4375 1.40625 -0.8125 C 1.109375 -1.28125 1.109375 -1.9375 1.109375 -2.296875 Z M 1.109375 -2.296875 "
           id="path1221" />
      </symbol>
      <symbol
         overflow="visible"
         id="symbol8258">
        <path
           style="stroke:none;"
           d="M 1.671875 -3.3125 L 1.671875 -4.40625 L 0.28125 -4.296875 L 0.28125 -3.984375 C 0.984375 -3.984375 1.0625 -3.921875 1.0625 -3.421875 L 1.0625 -0.75 C 1.0625 -0.3125 0.953125 -0.3125 0.28125 -0.3125 L 0.28125 0 C 0.671875 -0.015625 1.140625 -0.03125 1.421875 -0.03125 C 1.8125 -0.03125 2.28125 -0.03125 2.6875 0 L 2.6875 -0.3125 L 2.46875 -0.3125 C 1.734375 -0.3125 1.71875 -0.421875 1.71875 -0.78125 L 1.71875 -2.3125 C 1.71875 -3.296875 2.140625 -4.1875 2.890625 -4.1875 C 2.953125 -4.1875 2.984375 -4.1875 3 -4.171875 C 2.96875 -4.171875 2.765625 -4.046875 2.765625 -3.78125 C 2.765625 -3.515625 2.984375 -3.359375 3.203125 -3.359375 C 3.375 -3.359375 3.625 -3.484375 3.625 -3.796875 C 3.625 -4.109375 3.3125 -4.40625 2.890625 -4.40625 C 2.15625 -4.40625 1.796875 -3.734375 1.671875 -3.3125 Z M 1.671875 -3.3125 "
           id="path1879" />
      </symbol>
      <symbol
         overflow="visible"
         id="symbol6812">
        <path
           style="stroke:none;"
           d="M 1.09375 -3.421875 L 1.09375 -0.75 C 1.09375 -0.3125 0.984375 -0.3125 0.3125 -0.3125 L 0.3125 0 C 0.671875 -0.015625 1.171875 -0.03125 1.453125 -0.03125 C 1.703125 -0.03125 2.21875 -0.015625 2.5625 0 L 2.5625 -0.3125 C 1.890625 -0.3125 1.78125 -0.3125 1.78125 -0.75 L 1.78125 -2.59375 C 1.78125 -3.625 2.5 -4.1875 3.125 -4.1875 C 3.765625 -4.1875 3.875 -3.65625 3.875 -3.078125 L 3.875 -0.75 C 3.875 -0.3125 3.765625 -0.3125 3.09375 -0.3125 L 3.09375 0 C 3.4375 -0.015625 3.953125 -0.03125 4.21875 -0.03125 C 4.46875 -0.03125 5 -0.015625 5.328125 0 L 5.328125 -0.3125 C 4.8125 -0.3125 4.5625 -0.3125 4.5625 -0.609375 L 4.5625 -2.515625 C 4.5625 -3.375 4.5625 -3.671875 4.25 -4.03125 C 4.109375 -4.203125 3.78125 -4.40625 3.203125 -4.40625 C 2.46875 -4.40625 2 -3.984375 1.71875 -3.359375 L 1.71875 -4.40625 L 0.3125 -4.296875 L 0.3125 -3.984375 C 1.015625 -3.984375 1.09375 -3.921875 1.09375 -3.421875 Z M 1.09375 -3.421875 "
           id="path579" />
      </symbol>
      <symbol
         overflow="visible"
         id="symbol509">
        <path
           style="stroke:none;"
           d="M 2.21875 -1.71875 C 1.34375 -1.71875 1.34375 -2.71875 1.34375 -2.9375 C 1.34375 -3.203125 1.359375 -3.53125 1.5 -3.78125 C 1.578125 -3.890625 1.8125 -4.171875 2.21875 -4.171875 C 3.078125 -4.171875 3.078125 -3.1875 3.078125 -2.953125 C 3.078125 -2.6875 3.078125 -2.359375 2.921875 -2.109375 C 2.84375 -2 2.609375 -1.71875 2.21875 -1.71875 Z M 1.0625 -1.328125 C 1.0625 -1.359375 1.0625 -1.59375 1.21875 -1.796875 C 1.609375 -1.515625 2.03125 -1.484375 2.21875 -1.484375 C 3.140625 -1.484375 3.828125 -2.171875 3.828125 -2.9375 C 3.828125 -3.3125 3.671875 -3.671875 3.421875 -3.90625 C 3.78125 -4.25 4.140625 -4.296875 4.3125 -4.296875 C 4.34375 -4.296875 4.390625 -4.296875 4.421875 -4.28125 C 4.3125 -4.25 4.25 -4.140625 4.25 -4.015625 C 4.25 -3.84375 4.390625 -3.734375 4.546875 -3.734375 C 4.640625 -3.734375 4.828125 -3.796875 4.828125 -4.03125 C 4.828125 -4.203125 4.71875 -4.515625 4.328125 -4.515625 C 4.125 -4.515625 3.6875 -4.453125 3.265625 -4.046875 C 2.84375 -4.375 2.4375 -4.40625 2.21875 -4.40625 C 1.28125 -4.40625 0.59375 -3.71875 0.59375 -2.953125 C 0.59375 -2.515625 0.8125 -2.140625 1.0625 -1.921875 C 0.9375 -1.78125 0.75 -1.453125 0.75 -1.09375 C 0.75 -0.78125 0.890625 -0.40625 1.203125 -0.203125 C 0.59375 -0.046875 0.28125 0.390625 0.28125 0.78125 C 0.28125 1.5 1.265625 2.046875 2.484375 2.046875 C 3.65625 2.046875 4.6875 1.546875 4.6875 0.765625 C 4.6875 0.421875 4.5625 -0.09375 4.046875 -0.375 C 3.515625 -0.640625 2.9375 -0.640625 2.328125 -0.640625 C 2.078125 -0.640625 1.65625 -0.640625 1.578125 -0.65625 C 1.265625 -0.703125 1.0625 -1 1.0625 -1.328125 Z M 2.5 1.828125 C 1.484375 1.828125 0.796875 1.3125 0.796875 0.78125 C 0.796875 0.328125 1.171875 -0.046875 1.609375 -0.0625 L 2.203125 -0.0625 C 3.0625 -0.0625 4.171875 -0.0625 4.171875 0.78125 C 4.171875 1.328125 3.46875 1.828125 2.5 1.828125 Z M 2.5 1.828125 "
           id="path7898" />
      </symbol>
      <symbol
         overflow="visible"
         id="symbol6678">
        <path
           style="stroke:none;"
           d="M 2.078125 -1.9375 C 2.296875 -1.890625 3.109375 -1.734375 3.109375 -1.015625 C 3.109375 -0.515625 2.765625 -0.109375 1.984375 -0.109375 C 1.140625 -0.109375 0.78125 -0.671875 0.59375 -1.53125 C 0.5625 -1.65625 0.5625 -1.6875 0.453125 -1.6875 C 0.328125 -1.6875 0.328125 -1.625 0.328125 -1.453125 L 0.328125 -0.125 C 0.328125 0.046875 0.328125 0.109375 0.4375 0.109375 C 0.484375 0.109375 0.5 0.09375 0.6875 -0.09375 C 0.703125 -0.109375 0.703125 -0.125 0.890625 -0.3125 C 1.328125 0.09375 1.78125 0.109375 1.984375 0.109375 C 3.125 0.109375 3.59375 -0.5625 3.59375 -1.28125 C 3.59375 -1.796875 3.296875 -2.109375 3.171875 -2.21875 C 2.84375 -2.546875 2.453125 -2.625 2.03125 -2.703125 C 1.46875 -2.8125 0.8125 -2.9375 0.8125 -3.515625 C 0.8125 -3.875 1.0625 -4.28125 1.921875 -4.28125 C 3.015625 -4.28125 3.078125 -3.375 3.09375 -3.078125 C 3.09375 -2.984375 3.1875 -2.984375 3.203125 -2.984375 C 3.34375 -2.984375 3.34375 -3.03125 3.34375 -3.21875 L 3.34375 -4.234375 C 3.34375 -4.390625 3.34375 -4.46875 3.234375 -4.46875 C 3.1875 -4.46875 3.15625 -4.46875 3.03125 -4.34375 C 3 -4.3125 2.90625 -4.21875 2.859375 -4.1875 C 2.484375 -4.46875 2.078125 -4.46875 1.921875 -4.46875 C 0.703125 -4.46875 0.328125 -3.796875 0.328125 -3.234375 C 0.328125 -2.890625 0.484375 -2.609375 0.75 -2.390625 C 1.078125 -2.140625 1.359375 -2.078125 2.078125 -1.9375 Z M 2.078125 -1.9375 "
           id="path8344" />
      </symbol>
      <symbol
         overflow="visible"
         id="symbol3365">
        <path
           style="stroke:none;"
           d="M 1.75 -4.296875 L 1.75 -5.453125 C 1.75 -6.328125 2.21875 -6.8125 2.65625 -6.8125 C 2.6875 -6.8125 2.84375 -6.8125 2.984375 -6.734375 C 2.875 -6.703125 2.6875 -6.5625 2.6875 -6.3125 C 2.6875 -6.09375 2.84375 -5.890625 3.125 -5.890625 C 3.40625 -5.890625 3.5625 -6.09375 3.5625 -6.328125 C 3.5625 -6.703125 3.1875 -7.03125 2.65625 -7.03125 C 1.96875 -7.03125 1.109375 -6.5 1.109375 -5.4375 L 1.109375 -4.296875 L 0.328125 -4.296875 L 0.328125 -3.984375 L 1.109375 -3.984375 L 1.109375 -0.75 C 1.109375 -0.3125 1 -0.3125 0.34375 -0.3125 L 0.34375 0 C 0.734375 -0.015625 1.203125 -0.03125 1.46875 -0.03125 C 1.875 -0.03125 2.34375 -0.03125 2.734375 0 L 2.734375 -0.3125 L 2.53125 -0.3125 C 1.796875 -0.3125 1.78125 -0.421875 1.78125 -0.78125 L 1.78125 -3.984375 L 2.90625 -3.984375 L 2.90625 -4.296875 Z M 1.75 -4.296875 "
           id="path3074" />
      </symbol>
      <symbol
         overflow="visible"
         id="symbol6888">
        <path
           style="stroke:none;"
           d="M 4.6875 -2.140625 C 4.6875 -3.40625 3.703125 -4.46875 2.5 -4.46875 C 1.25 -4.46875 0.28125 -3.375 0.28125 -2.140625 C 0.28125 -0.84375 1.3125 0.109375 2.484375 0.109375 C 3.6875 0.109375 4.6875 -0.875 4.6875 -2.140625 Z M 2.5 -0.140625 C 2.0625 -0.140625 1.625 -0.34375 1.359375 -0.8125 C 1.109375 -1.25 1.109375 -1.859375 1.109375 -2.21875 C 1.109375 -2.609375 1.109375 -3.140625 1.34375 -3.578125 C 1.609375 -4.03125 2.078125 -4.25 2.484375 -4.25 C 2.921875 -4.25 3.34375 -4.03125 3.609375 -3.59375 C 3.875 -3.171875 3.875 -2.59375 3.875 -2.21875 C 3.875 -1.859375 3.875 -1.3125 3.65625 -0.875 C 3.421875 -0.421875 2.984375 -0.140625 2.5 -0.140625 Z M 2.5 -0.140625 "
           id="path8570" />
      </symbol>
      <symbol
         overflow="visible"
         id="symbol5334">
        <path
           style="stroke:none;"
           d="M 3.296875 2.390625 C 3.296875 2.359375 3.296875 2.34375 3.125 2.171875 C 1.890625 0.921875 1.5625 -0.96875 1.5625 -2.5 C 1.5625 -4.234375 1.9375 -5.96875 3.171875 -7.203125 C 3.296875 -7.328125 3.296875 -7.34375 3.296875 -7.375 C 3.296875 -7.453125 3.265625 -7.484375 3.203125 -7.484375 C 3.09375 -7.484375 2.203125 -6.796875 1.609375 -5.53125 C 1.109375 -4.4375 0.984375 -3.328125 0.984375 -2.5 C 0.984375 -1.71875 1.09375 -0.515625 1.640625 0.625 C 2.25 1.84375 3.09375 2.5 3.203125 2.5 C 3.265625 2.5 3.296875 2.46875 3.296875 2.390625 Z M 3.296875 2.390625 "
           id="path417" />
      </symbol>
      <symbol
         overflow="visible"
         id="symbol6000">
        <path
           style="stroke:none;"
           d="M 2.875 -2.5 C 2.875 -3.265625 2.765625 -4.46875 2.21875 -5.609375 C 1.625 -6.828125 0.765625 -7.484375 0.671875 -7.484375 C 0.609375 -7.484375 0.5625 -7.4375 0.5625 -7.375 C 0.5625 -7.34375 0.5625 -7.328125 0.75 -7.140625 C 1.734375 -6.15625 2.296875 -4.578125 2.296875 -2.5 C 2.296875 -0.78125 1.9375 0.96875 0.703125 2.21875 C 0.5625 2.34375 0.5625 2.359375 0.5625 2.390625 C 0.5625 2.453125 0.609375 2.5 0.671875 2.5 C 0.765625 2.5 1.671875 1.8125 2.25 0.546875 C 2.765625 -0.546875 2.875 -1.65625 2.875 -2.5 Z M 2.875 -2.5 "
           id="path281" />
      </symbol>
      <symbol
         overflow="visible"
         id="symbol1438">
        <path
           style="stroke:none;"
           d=""
           id="path3386" />
      </symbol>
      <symbol
         overflow="visible"
         id="symbol5535">
        <path
           style="stroke:none;"
           d="M 4.203125 5.328125 L 0.65625 9.703125 C 0.578125 9.796875 0.5625 9.8125 0.5625 9.859375 C 0.5625 9.96875 0.65625 9.96875 0.84375 9.96875 L 9.09375 9.96875 L 9.953125 7.484375 L 9.703125 7.484375 C 9.453125 8.234375 8.796875 8.84375 7.9375 9.125 C 7.78125 9.1875 7.09375 9.421875 5.625 9.421875 L 1.390625 9.421875 L 4.859375 5.140625 C 4.921875 5.046875 4.9375 5.03125 4.9375 4.984375 C 4.9375 4.9375 4.9375 4.9375 4.875 4.84375 L 1.640625 0.40625 L 5.578125 0.40625 C 6.71875 0.40625 9.015625 0.46875 9.703125 2.328125 L 9.953125 2.328125 L 9.09375 0 L 0.84375 0 C 0.5625 0 0.5625 0.015625 0.5625 0.3125 Z M 4.203125 5.328125 "
           id="path2123" />
      </symbol>
    </g>
  </defs>
  <g
     inkscape:label="Layer 1"
     inkscape:groupmode="layer"
     id="layer1">
    <ellipse
       style="opacity:1;fill:none;fill-opacity:1;stroke:#1f15ff;stroke-width:4.37022;stroke-linecap:round;stroke-miterlimit:4;stroke-dasharray:none;stroke-dashoffset:0;stroke-opacity:1;paint-order:markers stroke fill"
       id="path31"
       cx="268.52997"
       cy="142.0417"
       rx="52.233131"
       ry="51.507584" />
    <g
       inkscape:label=""
       transform="matrix(2.0835176,0,0,1.8311007,35.085071,-2.7683066)"
       id="g7242">
      <g
         id="g2793">
        <g
           style="fill:#000000;fill-opacity:1"
           id="g1445">
          <use
             xlink:href="#symbol4807"
             x="91.925003"
             y="74.490997"
             id="use2416"
             width="100%"
             height="100%" />
        </g>
      </g>
    </g>
    <rect
       style="opacity:1;fill:none;fill-opacity:1;stroke:#1f1527;stroke-width:2.20094;stroke-linecap:round;stroke-miterlimit:4;stroke-dasharray:none;stroke-dashoffset:0;stroke-opacity:1;paint-order:markers stroke fill"
       id="rect10459"
       width="27.918535"
       height="30.724651"
       x="223.43513"
       y="127.68519"
       ry="4.6824946" />
    <path
       style="fill:none;stroke:#000000;stroke-width:0.350693;stroke-linecap:butt;stroke-linejoin:miter;stroke-miterlimit:4;stroke-dasharray:none;stroke-opacity:1;marker-end:url(#Arrow1Lend)"
       d="m 267.5048,148.50979 c 46.2064,0 46.2064,0 46.2064,0"
       id="path11190" />
    <path
       style="fill:none;stroke:#000000;stroke-width:0.350693;stroke-linecap:butt;stroke-linejoin:miter;stroke-miterlimit:4;stroke-dasharray:none;stroke-opacity:1;marker-end:url(#Arrow1Lend-3)"
       d="M 288.59335,161.25244 V 122.33787"
       id="path11190-7"
       sodipodi:nodetypes="cc" />
    <path
       style="fill:#ff0000;stroke:#fd0000;stroke-width:0.823463;stroke-linecap:butt;stroke-linejoin:miter;stroke-miterlimit:4;stroke-dasharray:none;stroke-opacity:1"
       d="m 267.5048,148.50979 c 20.739,0 20.739,0 20.739,0"
       id="path11616" />
    <path
       style="fill:#ff0000;stroke:#fd0000;stroke-width:0.823463;stroke-linecap:butt;stroke-linejoin:miter;stroke-miterlimit:4;stroke-dasharray:none;stroke-opacity:1"
       d="m 288.9131,137.32592 c 20.73896,0 20.73896,0 20.73896,0"
       id="path11616-5" />
    <text
       xml:space="preserve"
       style="font-style:normal;font-weight:normal;font-size:6.35px;line-height:1.25;font-family:sans-serif;letter-spacing:0px;word-spacing:0px;fill:#000000;fill-opacity:1;stroke:none;stroke-width:0.264583"
       x="269.46588"
       y="166.93346"
       id="text13091"><tspan
         sodipodi:role="line"
         id="tspan13089"
         style="font-size:6.35px;stroke-width:0.264583"
         x="269.46588"
         y="166.93346">Aktivierungs-</tspan><tspan
         sodipodi:role="line"
         style="font-size:6.35px;stroke-width:0.264583"
         x="269.46588"
         y="174.87096"
         id="tspan24991">funktion</tspan></text>
    <g
       id="g37651"
       transform="matrix(0.77653848,0,0,1,189.27866,21.501797)">
      <rect
         style="opacity:1;fill:#000000;fill-opacity:1;stroke:none;stroke-width:0.493573;stroke-linecap:round;stroke-miterlimit:4;stroke-dasharray:none;stroke-dashoffset:0;stroke-opacity:1;paint-order:markers stroke fill"
         id="rect37384"
         width="11.580681"
         height="1.7970657"
         x="84.919182"
         y="120.48605"
         ry="0.89853287" />
      <path
         sodipodi:type="star"
         style="opacity:1;fill:#000000;fill-opacity:1;stroke:none;stroke-width:4.0252;stroke-linecap:round;stroke-miterlimit:4;stroke-dasharray:none;stroke-dashoffset:0;stroke-opacity:1;paint-order:markers stroke fill"
         id="path37441"
         inkscape:flatsided="true"
         sodipodi:sides="3"
         sodipodi:cx="54.833755"
         sodipodi:cy="241.98993"
         sodipodi:r1="41.624046"
         sodipodi:r2="20.812023"
         sodipodi:arg1="0.88615725"
         sodipodi:arg2="1.9333548"
         inkscape:rounded="0.01"
         inkscape:randomized="0"
         d="m 81.15653,274.23389 c -0.558481,0.45592 -67.292647,-24.85813 -67.408248,-25.56975 -0.1156,-0.71162 55.174089,-45.84808 55.848172,-45.59238 0.674082,0.2557 12.118558,70.7062 11.560076,71.16213 z"
         transform="matrix(0.05088727,-0.07481039,0.06330288,0.06013781,79.350958,110.9463)"
         inkscape:transform-center-x="-1.4520774"
         inkscape:transform-center-y="-0.35888228" />
    </g>
    <path
       style="fill:none;stroke:#0000ff;stroke-width:2.74075;stroke-linecap:butt;stroke-linejoin:miter;stroke-miterlimit:4;stroke-dasharray:none;stroke-opacity:1"
       d="m 320.12448,142.81153 c 28.56352,0 28.56352,0 28.56352,0"
       id="path37686" />
    <text
       xml:space="preserve"
       style="font-style:normal;font-weight:normal;font-size:8.46667px;line-height:1.25;font-family:sans-serif;letter-spacing:0px;word-spacing:0px;fill:#000000;fill-opacity:1;stroke:none;stroke-width:0.264583"
       x="351.70651"
       y="145.08142"
       id="text13091-3"><tspan
         sodipodi:role="line"
         style="font-size:8.46667px;stroke-width:0.264583"
         x="351.70651"
         y="145.08142"
         id="tspan24991-6">Output</tspan></text>
    <path
       style="fill:none;stroke:#0000ff;stroke-width:3.15978;stroke-linecap:butt;stroke-linejoin:miter;stroke-miterlimit:4;stroke-dasharray:none;stroke-opacity:1"
       d="m 102.98542,156.23624 c 113.17886,0.27302 113.54978,0.0408 113.54978,0.0408"
       id="path47437" />
    <path
       style="fill:none;stroke:#0000ff;stroke-width:3.14568;stroke-linecap:butt;stroke-linejoin:miter;stroke-miterlimit:4;stroke-dasharray:none;stroke-opacity:1"
       d="m 103.46836,131.08198 c 112.17086,0.27302 112.53847,0.0408 112.53847,0.0408"
       id="path47437-1" />
    <text
       xml:space="preserve"
       style="font-style:normal;font-weight:normal;font-size:6.35px;line-height:1.25;font-family:sans-serif;letter-spacing:0px;word-spacing:0px;fill:#000000;fill-opacity:1;stroke:none;stroke-width:0.264583"
       x="41.476921"
       y="136.89398"
       id="text13091-2"><tspan
         sodipodi:role="line"
         style="font-size:6.35px;stroke-width:0.264583"
         x="41.476921"
         y="136.89398"
         id="tspan24991-0" /></text>
    <g
       inkscape:label=""
       transform="translate(-5.7908915,50.485364)"
       id="g52712">
      <g
         id="g3059">
        <g
           style="fill:#000000;fill-opacity:1"
           id="g7007">
          <use
             xlink:href="#symbol2930"
             x="91.925003"
             y="81.962997"
             id="use9156"
             width="100%"
             height="100%" />
        </g>
        <g
           style="fill:#000000;fill-opacity:1"
           id="g3961">
          <use
             xlink:href="#symbol7662"
             x="97.619003"
             y="83.457001"
             id="use4692"
             width="100%"
             height="100%" />
        </g>
      </g>
    </g>
    <g
       inkscape:label=""
       transform="translate(-5.963234,76.107499)"
       id="g52864">
      <g
         id="g52862">
        <g
           style="fill:#000000;fill-opacity:1"
           id="g3773">
          <use
             xlink:href="#symbol5257"
             x="91.925003"
             y="81.962997"
             id="use6618"
             width="100%"
             height="100%" />
        </g>
        <g
           style="fill:#000000;fill-opacity:1"
           id="g7976">
          <use
             xlink:href="#symbol5541"
             x="97.619003"
             y="83.457001"
             id="use5030"
             width="100%"
             height="100%" />
        </g>
      </g>
    </g>
    <g
       inkscape:label=""
       transform="translate(69.078148,69.344411)"
       id="g53045">
      <g
         id="g3152">
        <g
           style="fill:#000000;fill-opacity:1"
           id="g8599">
          <use
             xlink:href="#symbol5717"
             x="91.925003"
             y="81.962997"
             id="use6342"
             width="100%"
             height="100%" />
        </g>
        <g
           style="fill:#000000;fill-opacity:1"
           id="g3095">
          <use
             xlink:href="#symbol4000"
             x="99.057999"
             y="83.457001"
             id="use7748"
             width="100%"
             height="100%" />
        </g>
      </g>
    </g>
    <g
       inkscape:label=""
       transform="translate(69.818401,40.605984)"
       id="g53256">
      <g
         id="g7800">
        <g
           style="fill:#000000;fill-opacity:1"
           id="g2625">
          <use
             xlink:href="#symbol9701"
             x="91.925003"
             y="81.962997"
             id="use8926"
             width="100%"
             height="100%" />
        </g>
        <g
           style="fill:#000000;fill-opacity:1"
           id="g3513">
          <use
             xlink:href="#symbol5679"
             x="99.057999"
             y="83.457001"
             id="use5137"
             width="100%"
             height="100%" />
        </g>
      </g>
    </g>
    <g
       inkscape:label=""
       transform="translate(78.209718,134.95182)"
       id="g53491">
      <g
         id="g3998">
        <g
           style="fill:#000000;fill-opacity:1"
           id="g8267">
          <use
             xlink:href="#symbol1768"
             x="91.925003"
             y="81.962997"
             id="use5200"
             width="100%"
             height="100%" />
        </g>
      </g>
    </g>
    <path
       style="fill:none;stroke:#0000ff;stroke-width:3.2;stroke-linecap:butt;stroke-linejoin:miter;stroke-miterlimit:4;stroke-dasharray:none;stroke-opacity:1"
       d="m 221.31848,161.05569 c -41.0007,47.3855 -41.0007,47.3855 -41.0007,47.3855"
       id="path53555" />
    <text
       xml:space="preserve"
       style="font-style:normal;font-weight:normal;font-size:8.46667px;line-height:1.25;font-family:sans-serif;letter-spacing:0px;word-spacing:0px;fill:#000000;fill-opacity:1;stroke:none;stroke-width:0.264583"
       x="67.470703"
       y="110.37476"
       id="text13091-3-9"><tspan
         sodipodi:role="line"
         style="font-size:8.46667px;stroke-width:0.264583"
         x="67.470703"
         y="110.37476"
         id="tspan24991-6-3">Eingabe</tspan></text>
    <text
       xml:space="preserve"
       style="font-style:normal;font-weight:normal;font-size:8.46667px;line-height:1.25;font-family:sans-serif;letter-spacing:0px;word-spacing:0px;fill:#000000;fill-opacity:1;stroke:none;stroke-width:0.264583"
       x="145.90428"
       y="107.0671"
       id="text13091-3-9-6"><tspan
         sodipodi:role="line"
         style="font-size:8.46667px;stroke-width:0.264583"
         x="145.90428"
         y="107.0671"
         id="tspan24991-6-3-0">Gewichte</tspan></text>
    <text
       xml:space="preserve"
       style="font-style:normal;font-weight:normal;font-size:8.46667px;line-height:1.25;font-family:sans-serif;letter-spacing:0px;word-spacing:0px;fill:#000000;fill-opacity:1;stroke:none;stroke-width:0.264583"
       x="163.06674"
       y="230.95744"
       id="text13091-3-9-6-6"><tspan
         sodipodi:role="line"
         style="font-size:8.46667px;stroke-width:0.264583"
         x="163.06674"
         y="230.95744"
         id="tspan24991-6-3-0-2">Bias</tspan></text>
    <g
       inkscape:label=""
       transform="matrix(1.3152895,0,0,1.3152895,98.786791,111.64973)"
       id="g60921">
      <g
         id="g429">
        <g
           style="fill:#000000;fill-opacity:1"
           id="g8235">
          <use
             xlink:href="#symbol1053"
             x="91.925003"
             y="74.490997"
             id="use46"
             width="100%"
             height="100%" />
        </g>
        <g
           style="fill:#000000;fill-opacity:1"
           id="g4129">
          <use
             xlink:href="#symbol9385"
             x="105.209"
             y="81.962997"
             id="use5586"
             width="100%"
             height="100%" />
        </g>
        <g
           style="fill:#000000;fill-opacity:1"
           id="g7143">
          <use
             xlink:href="#symbol9297"
             x="115.725"
             y="81.962997"
             id="use5472"
             width="100%"
             height="100%" />
        </g>
        <g
           style="fill:#000000;fill-opacity:1"
           id="g4336">
          <use
             xlink:href="#symbol4028"
             x="121.419"
             y="83.457001"
             id="use9114"
             width="100%"
             height="100%" />
        </g>
        <g
           style="fill:#000000;fill-opacity:1"
           id="g3344">
          <use
             xlink:href="#symbol358"
             x="128.10201"
             y="81.962997"
             id="use4812"
             width="100%"
             height="100%" />
        </g>
        <g
           style="fill:#000000;fill-opacity:1"
           id="g1909">
          <use
             xlink:href="#symbol2713"
             x="133.08299"
             y="81.962997"
             id="use355"
             width="100%"
             height="100%" />
        </g>
        <g
           style="fill:#000000;fill-opacity:1"
           id="g2294">
          <use
             xlink:href="#symbol4028"
             x="140.216"
             y="83.457001"
             id="use9220"
             width="100%"
             height="100%" />
        </g>
        <g
           style="fill:#000000;fill-opacity:1"
           id="g4868">
          <use
             xlink:href="#symbol9068"
             x="146.899"
             y="81.962997"
             id="use8027"
             width="100%"
             height="100%" />
        </g>
        <g
           style="fill:#000000;fill-opacity:1"
           id="g3684">
          <use
             xlink:href="#symbol9297"
             x="156.862"
             y="81.962997"
             id="use6287"
             width="100%"
             height="100%" />
        </g>
        <g
           style="fill:#000000;fill-opacity:1"
           id="g6679">
          <use
             xlink:href="#symbol1361"
             x="162.55499"
             y="83.457001"
             id="use9401"
             width="100%"
             height="100%" />
        </g>
        <g
           style="fill:#000000;fill-opacity:1"
           id="g2889">
          <use
             xlink:href="#symbol358"
             x="169.239"
             y="81.962997"
             id="use6164"
             width="100%"
             height="100%" />
        </g>
        <g
           style="fill:#000000;fill-opacity:1"
           id="g8590">
          <use
             xlink:href="#symbol2713"
             x="174.22"
             y="81.962997"
             id="use2585"
             width="100%"
             height="100%" />
        </g>
        <g
           style="fill:#000000;fill-opacity:1"
           id="g7190">
          <use
             xlink:href="#symbol1361"
             x="181.35201"
             y="83.457001"
             id="use7985"
             width="100%"
             height="100%" />
        </g>
        <g
           style="fill:#000000;fill-opacity:1"
           id="g4857">
          <use
             xlink:href="#symbol9068"
             x="188.036"
             y="81.962997"
             id="use2166"
             width="100%"
             height="100%" />
        </g>
        <g
           style="fill:#000000;fill-opacity:1"
           id="g9730">
          <use
             xlink:href="#symbol1616"
             x="197.998"
             y="81.962997"
             id="use1148"
             width="100%"
             height="100%" />
        </g>
      </g>
    </g>
    <g
       inkscape:label=""
       transform="matrix(1.3198468,0,0,1.3198468,96.436051,131.08198)"
       id="g61968">
      <g
         id="g4044">
        <g
           style="fill:#000000;fill-opacity:1"
           id="g553">
          <use
             xlink:href="#symbol593"
             x="91.925003"
             y="81.962997"
             id="use5814"
             width="100%"
             height="100%" />
          <use
             xlink:href="#symbol4623"
             x="99.673912"
             y="81.962997"
             id="use903"
             width="100%"
             height="100%" />
          <use
             xlink:href="#symbol7344"
             x="105.20913"
             y="81.962997"
             id="use1423"
             width="100%"
             height="100%" />
          <use
             xlink:href="#symbol6874"
             x="109.08359"
             y="81.962997"
             id="use5896"
             width="100%"
             height="100%" />
          <use
             xlink:href="#symbol4623"
             x="114.6188"
             y="81.962997"
             id="use9083"
             width="100%"
             height="100%" />
          <use
             xlink:href="#symbol7344"
             x="120.15403"
             y="81.962997"
             id="use5380"
             width="100%"
             height="100%" />
        </g>
        <g
           style="fill:#000000;fill-opacity:1"
           id="g9654">
          <use
             xlink:href="#symbol2754"
             x="126.79809"
             y="81.962997"
             id="use162"
             width="100%"
             height="100%" />
        </g>
        <g
           style="fill:#000000;fill-opacity:1"
           id="g334">
          <use
             xlink:href="#symbol3502"
             x="137.30664"
             y="81.962997"
             id="use8655"
             width="100%"
             height="100%" />
          <use
             xlink:href="#symbol4980"
             x="144.77858"
             y="81.962997"
             id="use4207"
             width="100%"
             height="100%" />
          <use
             xlink:href="#symbol7344"
             x="150.03685"
             y="81.962997"
             id="use8250"
             width="100%"
             height="100%" />
          <use
             xlink:href="#symbol8181"
             x="153.9113"
             y="81.962997"
             id="use8257"
             width="100%"
             height="100%" />
          <use
             xlink:href="#symbol4846"
             x="156.67891"
             y="81.962997"
             id="use5572"
             width="100%"
             height="100%" />
          <use
             xlink:href="#symbol8181"
             x="161.93718"
             y="81.962997"
             id="use6517"
             width="100%"
             height="100%" />
          <use
             xlink:href="#symbol6491"
             x="164.70479"
             y="81.962997"
             id="use6171"
             width="100%"
             height="100%" />
          <use
             xlink:href="#symbol8258"
             x="169.13216"
             y="81.962997"
             id="use7143"
             width="100%"
             height="100%" />
          <use
             xlink:href="#symbol4623"
             x="173.03452"
             y="81.962997"
             id="use1486"
             width="100%"
             height="100%" />
          <use
             xlink:href="#symbol6812"
             x="178.56973"
             y="81.962997"
             id="use884"
             width="100%"
             height="100%" />
          <use
             xlink:href="#symbol509"
             x="184.10495"
             y="81.962997"
             id="use3775"
             width="100%"
             height="100%" />
          <use
             xlink:href="#symbol6678"
             x="189.08626"
             y="81.962997"
             id="use2391"
             width="100%"
             height="100%" />
          <use
             xlink:href="#symbol3365"
             x="193.0155"
             y="81.962997"
             id="use9826"
             width="100%"
             height="100%" />
          <use
             xlink:href="#symbol4623"
             x="196.06007"
             y="81.962997"
             id="use4977"
             width="100%"
             height="100%" />
          <use
             xlink:href="#symbol6812"
             x="201.59529"
             y="81.962997"
             id="use9805"
             width="100%"
             height="100%" />
          <use
             xlink:href="#symbol4980"
             x="207.13051"
             y="81.962997"
             id="use5420"
             width="100%"
             height="100%" />
          <use
             xlink:href="#symbol7344"
             x="212.38878"
             y="81.962997"
             id="use6609"
             width="100%"
             height="100%" />
          <use
             xlink:href="#symbol8181"
             x="216.26323"
             y="81.962997"
             id="use2997"
             width="100%"
             height="100%" />
          <use
             xlink:href="#symbol6888"
             x="219.03084"
             y="81.962997"
             id="use9467"
             width="100%"
             height="100%" />
          <use
             xlink:href="#symbol6812"
             x="224.01215"
             y="81.962997"
             id="use4189"
             width="100%"
             height="100%" />
          <use
             xlink:href="#symbol5334"
             x="229.54736"
             y="81.962997"
             id="use5880"
             width="100%"
             height="100%" />
        </g>
        <g
           style="fill:#000000;fill-opacity:1"
           id="g5566">
          <use
             xlink:href="#symbol5535"
             x="233.423"
             y="74.490997"
             id="use5822"
             width="100%"
             height="100%" />
        </g>
        <g
           style="fill:#000000;fill-opacity:1"
           id="g1446">
          <use
             xlink:href="#symbol6000"
             x="243.939"
             y="81.962997"
             id="use3514"
             width="100%"
             height="100%" />
        </g>
      </g>
    </g>
  </g>
</svg>
